HIERARCHY
ROOT Hips
{
	OFFSET 0.000000 0.000000 0.000000 
	CHANNELS 6 Xposition Yposition Zposition Yrotation Zrotation Xrotation 
	JOINT Lumbar
	{
		OFFSET 0.000000 0.000000 0.000000 
		CHANNELS 3 Zrotation Xrotation Yrotation
		JOINT Neck
		{
			OFFSET 0.000000 0.445665 0.000000 
			CHANNELS 3 Zrotation Xrotation Yrotation
			End Site
			{
				OFFSET 0.000000 0.227535 0.000000 
			}
		}
		JOINT RightShoulder
		{
			OFFSET 0.019635 0.377685 0.194865 
			CHANNELS 3 Zrotation Xrotation Yrotation
			JOINT RightElbow
			{
				OFFSET 0.000000 -0.243375 0.000000 
				CHANNELS 2 Zrotation Yrotation
				JOINT RightWrist
				{
					OFFSET 0.000000 -0.264825 0.000000 
					CHANNELS 2 Zrotation Xrotation
					End Site
					{
						OFFSET 0.006600 -0.176220 0.000990 
					}
				}
			}
		}
		JOINT LeftShoulder
		{
			OFFSET 0.019635 0.377685 -0.194865 
			CHANNELS 3 Zrotation Xrotation Yrotation
			JOINT LeftElbow
			{
				OFFSET 0.000000 -0.243375 0.000000 
				CHANNELS 2 Zrotation Yrotation
				JOINT LeftWrist
				{
					OFFSET 0.000000 -0.264825 0.000000 
					CHANNELS 2 Zrotation Xrotation
					End Site
					{
						OFFSET 0.006600 -0.176220 -0.000990 
					}
				}
			}
		}
	}
	JOINT RightHip
	{
		OFFSET 0.052140 -0.069960 0.075570 
		CHANNELS 3 Zrotation Xrotation Yrotation
		JOINT RightKnee
		{
			OFFSET 0.000000 -0.402270 0.000000 
			CHANNELS 1 Zrotation
			JOINT RightAnkle
			{
				OFFSET 0.000000 -0.404085 0.000000 
				CHANNELS 3 Zrotation Xrotation Yrotation
				End Site
				{
					OFFSET 0.204105 -0.089430 0.008415 
				}
			}
		}
	}
	JOINT LeftHip
	{
		OFFSET 0.052140 -0.069960 -0.075570 
		CHANNELS 3 Zrotation Xrotation Yrotation
		JOINT LeftKnee
		{
			OFFSET 0.000000 -0.402270 0.000000 
			CHANNELS 1 Zrotation
			JOINT LeftAnkle
			{
				OFFSET 0.000000 -0.404085 0.000000 
				CHANNELS 3 Zrotation Xrotation Yrotation
				End Site
				{
					OFFSET 0.204105 -0.089430 -0.008415 
				}
			}
		}
	}
}
MOTION
Frames: 28
Frame Time: 0.02
0.00104 3e-05 -0.00043 44.13528 -30.2607 -9.7214 48.72136 1.57884 -6.38892 2.43888 0.98769 -0.83248 -16.53386 -9.78248 -10.05744 26.98421 89.33063 3.00651 1.81186 -18.59337 -4.27598 39.80133 44.77609 -180.37404 40.18132 -16.48157 41.78432 1.12719 -7.05687 -19.15763 -6.07682 -2.03444 -3.18777 44.88119 -0.62823 -2.96797 -24.93516 -6.33206 3.02476 3.6808
0.00142 0.0001 -0.00096 44.14476 -30.19368 -9.71462 48.8034 1.58978 -6.31434 2.0255 0.97795 -0.83436 -17.57433 -9.74931 -10.10901 27.15736 89.34958 3.07334 1.80738 -20.55303 -2.44994 35.77049 44.64468 -172.84343 37.66148 -15.05282 41.64273 1.03226 -7.60763 -19.15208 -6.0888 -1.9807 -3.16221 44.74066 -0.41321 -1.98839 -24.9295 -6.32204 2.91885 3.62933
0.0018 0.00017 -0.00148 44.15431 -30.12683 -9.70787 48.88523 1.60069 -6.24001 1.61328 0.96819 -0.83623 -18.6117 -9.71621 -10.1603 27.33002 89.36875 3.1401 1.80292 -22.50651 -0.63219 31.75835 44.51357 -165.34551 35.15292 -13.63027 41.5015 0.93764 -8.15659 -19.14655 -6.10073 -1.92713 -3.13673 44.60048 -0.19875 -1.01133 -24.92384 -6.31206 2.81322 3.57798
0.00218 0.00024 -0.00201 44.16377 -30.06002 -9.70111 48.96703 1.6116 -6.16566 1.20114 0.95846 -0.8381 -19.64903 -9.68313 -10.21171 27.50264 89.38767 3.20675 1.79845 -24.46013 1.18759 27.74144 44.38255 -157.84033 32.64166 -12.20634 41.36033 0.84301 -8.70564 -19.14102 -6.11267 -1.87356 -3.11124 44.46037 0.01563 -0.03467 -24.91819 -6.30208 2.70763 3.52666
0.00256 0.00031 -0.00253 44.17314 -29.99306 -9.69433 49.04901 1.62254 -6.09105 0.78793 0.94877 -0.83998 -20.68931 -9.65001 -10.26339 27.67574 89.40629 3.27341 1.79398 -26.41993 3.01722 23.70209 44.25129 -150.297 30.11711 -10.77517 41.21885 0.74808 -9.25653 -19.13546 -6.12465 -1.81982 -3.08567 44.31996 0.23053 0.94428 -24.91253 -6.29206 2.60179 3.47522
0.00294 0.00038 -0.00306 44.18305 -29.92644 -9.68763 49.13052 1.63341 -6.01731 0.3778 0.93887 -0.84185 -21.72043 -9.61694 -10.31384 27.84749 89.42663 3.34039 1.78955 -28.36001 4.81022 19.74654 44.12053 -142.8938 27.64189 -9.3706 41.07816 0.65412 -9.80141 -19.12998 -6.13649 -1.7666 -3.06038 44.18026 0.44406 1.91729 -24.90689 -6.28216 2.49658 3.42408
0.00332 0.00045 -0.00358 44.19186 -29.85921 -9.68078 49.21288 1.6444 -5.94191 -0.03812 0.9294 -0.84373 -22.76908 -9.58379 -10.3668 28.02173 89.44344 3.40664 1.78501 -30.33765 6.67334 15.63073 43.98887 -135.22244 25.07216 -7.91514 40.93602 0.5583 -10.35774 -19.12437 -6.1486 -1.71239 -3.03455 44.03928 0.66011 2.90122 -24.9012 -6.27202 2.39023 3.37239
0.0037 0.00052 -0.00411 44.2017 -29.79254 -9.67406 49.29447 1.65527 -5.86802 -0.4486 0.91953 -0.8456 -23.80114 -9.55073 -10.41731 28.19372 89.46359 3.47359 1.78061 -32.28059 8.47472 11.65542 43.85807 -127.78807 22.5859 -6.50462 40.79522 0.46419 -10.90359 -19.11887 -6.16046 -1.6591 -3.00922 43.8995 0.87382 3.87501 -24.89557 -6.26211 2.28494 3.32121
0.00407 0.00058 -0.00463 44.21276 -29.72651 -9.66753 49.37514 1.66602 -5.79605 -0.85301 0.90918 -0.84745 -24.81508 -9.51771 -10.46535 28.36286 89.48751 3.54135 1.77626 -34.18215 10.18932 7.88023 43.72813 -120.68282 20.21589 -5.15664 40.65597 0.37217 -11.43654 -19.11352 -6.17201 -1.60687 -2.98449 43.76105 1.08483 4.83719 -24.88998 -6.25247 2.18086 3.27061
0.00447 0.00066 -0.00518 44.21666 -29.65669 -9.65998 49.46117 1.67753 -5.71325 -1.29413 0.90163 -0.8494 -25.93976 -9.48426 -10.52919 28.54808 89.48884 3.60433 1.77125 -36.32498 12.36921 3.0389 43.59269 -111.80247 17.21974 -3.47172 40.50753 0.26813 -12.04347 -19.10734 -6.18535 -1.54837 -2.95627 43.61449 1.31188 5.86855 -24.88407 -6.24125 2.06957 3.21654
0.00481 0.00072 -0.00566 44.23574 -29.59495 -9.65456 49.53584 1.68742 -5.65316 -1.65663 0.88812 -0.85115 -26.82658 -9.45184 -10.55869 28.69957 89.53837 3.67746 1.76786 -37.95661 13.58933 0.39206 43.46922 -106.59102 15.51714 -2.48295 40.37869 0.18944 -12.49441 -19.10291 -6.19489 -1.5032 -2.93544 43.48535 1.50474 6.75231 -24.87887 -6.23336 1.97363 3.16987
0.00494 0.00074 -0.006 44.29655 -29.55482 -9.65534 49.57924 1.693 -5.65706 -1.81066 0.85835 -0.85234 -27.08858 -9.42086 -10.50195 28.75628 89.72399 3.78025 1.76821 -38.18761 11.96482 4.28903 43.37559 -112.18849 17.63028 -3.54746 40.30234 0.1811 -12.51247 -19.10334 -6.19407 -1.4941 -2.93488 43.40209 1.60581 7.2407 -24.87547 -6.23479 1.91904 3.14298
0.005 0.00074 -0.00627 44.37263 -29.52293 -9.6582 49.61117 1.69691 -5.68353 -1.8842 0.82251 -0.85334 -27.1061 -9.39099 -10.40973 28.77965 89.96212 3.89429 1.7711 -37.90339 9.41251 10.30027 43.29442 -121.34271 20.99636 -5.2865 40.24595 0.19806 -12.37485 -19.10552 -6.18941 -1.49848 -2.94172 43.33673 1.67212 7.57888 -24.87281 -6.23953 1.88001 3.1236
0.0051 0.00075 -0.00657 44.44168 -29.48764 -9.65989 49.64849 1.70148 -5.69846 -1.99013 0.78943 -0.85443 -27.21785 -9.36172 -10.32789 28.81959 90.16753 4.00024 1.77227 -37.85549 7.42651 14.99369 43.20965 -128.37254 23.61099 -6.62091 40.18121 0.20293 -12.31156 -19.10688 -6.18645 -1.49703 -2.94517 43.26436 1.75309 7.97981 -24.86989 -6.24266 1.83436 3.10108
0.00521 0.00076 -0.00689 44.51105 -29.45084 -9.66256 49.68535 1.70649 -5.7185 -2.11448 0.75654 -0.85547 -27.40224 -9.32847 -10.26822 28.85302 90.39056 4.1131 1.77261 -37.8036 4.84086 21.16791 43.11665 -137.51292 26.98285 -8.36248 40.11331 0.21039 -12.23261 -19.10837 -6.18368 -1.49436 -2.94878 43.18703 1.83903 8.40467 -24.86663 -6.24627 1.78679 3.07738
0.00526 0.00077 -0.00714 44.58347 -29.41922 -9.66366 49.72005 1.71015 -5.73366 -2.18023 0.72157 -0.85658 -27.37505 -9.30293 -10.15651 28.89267 90.61426 4.22135 1.77932 -37.63007 3.26805 24.79727 43.04315 -143.15218 29.09185 -9.42627 40.05692 0.2184 -12.14965 -19.11 -6.17961 -1.49741 -2.9538 43.12456 1.90609 8.74288 -24.86427 -6.24966 1.74698 3.05797
0.00518 0.00074 -0.00722 44.6595 -29.39936 -9.66019 49.75487 1.71092 -5.72626 -2.11369 0.68423 -0.85788 -26.8439 -9.30656 -9.88507 28.95302 90.59788 4.24879 1.76604 -37.31483 4.8632 20.54107 43.02603 -137.79062 27.25181 -8.36084 40.02567 0.22212 -12.09184 -19.11157 -6.17288 -1.51308 -2.96082 43.09642 1.93224 8.88985 -24.86404 -6.25166 1.72393 3.04825
0.00505 0.0007 -0.00721 44.73822 -29.38458 -9.65503 49.7872 1.71032 -5.71386 -1.98889 0.64461 -0.85925 -26.10436 -9.31696 -9.56503 29.02159 90.61229 4.28037 1.7642 -36.88204 7.48381 13.71165 43.02733 -128.86594 24.12553 -6.60666 40.00573 0.22547 -12.03559 -19.11322 -6.16498 -1.53403 -2.969 43.08312 1.94018 8.95312 -24.86473 -6.25334 1.70826 3.04265
0.00494 0.00067 -0.00724 44.81643 -29.36775 -9.65049 49.81867 1.71006 -5.70605 -1.88471 0.60482 -0.86061 -25.44709 -9.31822 -9.28614 29.08958 90.77656 4.35671 1.78366 -36.45902 9.53977 8.28595 43.01619 -121.87749 21.69036 -5.22882 39.98163 0.22868 -11.98012 -19.11483 -6.15763 -1.5525 -2.97668 43.06441 1.95457 9.04688 -24.86509 -6.25513 1.68976 3.03541
0.00485 0.00064 -0.0073 44.89232 -29.3499 -9.64666 49.85859 1.71088 -5.68913 -1.80355 0.57006 -0.86189 -24.83442 -9.34282 -8.93414 29.14344 90.29538 4.24893 1.69874 -36.20378 11.97662 1.95365 43.02152 -113.68384 18.85173 -3.60887 39.9537 0.23396 -11.91365 -19.11652 -6.15009 -1.57178 -2.9845 43.04036 1.97508 9.1657 -24.86505 -6.25715 1.66968 3.02747
0.00469 0.00061 -0.00726 44.97328 -29.33553 -9.64089 49.87992 1.7092 -5.68985 -1.66026 0.52418 -0.86335 -24.08174 -9.32327 -8.71251 29.22869 91.10941 4.50993 1.82465 -35.57599 13.87963 -3.13991 42.99819 -107.09709 16.52828 -2.31871 39.93668 0.23465 -11.87159 -19.11804 -6.14271 -1.59046 -2.99221 43.03114 1.97943 9.21635 -24.8661 -6.2586 1.65432 3.02182
0.00434 0.00054 -0.00698 45.0691 -29.32751 -9.63061 49.85516 1.70073 -5.73904 -1.37198 0.44982 -0.86523 -23.00168 -9.15492 -8.95776 29.40237 95.98686 5.92614 2.6121 -33.96704 14.02887 -4.10038 42.88171 -105.89489 15.96508 -2.12288 39.94291 0.22125 -11.90582 -19.1192 -6.13613 -1.60596 -2.99914 43.05602 1.93992 9.0832 -24.86961 -6.2582 1.65135 3.02201
0.0039 0.00047 -0.00659 45.16954 -29.32331 -9.61841 49.81095 1.68986 -5.80616 -1.02131 0.36414 -0.86729 -21.78772 -8.94615 -9.31971 29.60674 102.08523 7.69059 3.59786 -31.98671 13.61562 -3.75199 42.73937 -106.40053 15.9541 -2.27644 39.96063 0.20334 -11.96419 -19.12017 -6.12978 -1.62061 -3.00587 43.09608 1.88566 8.88802 -24.87424 -6.25729 1.6526 3.02423
0.0035 0.00041 -0.00624 45.26678 -29.31845 -9.60676 49.77265 1.68021 -5.86614 -0.69152 0.28248 -0.86928 -20.63074 -8.77301 -9.56433 29.79487 107.28602 9.20128 4.43655 -30.16619 13.48333 -4.06734 42.61264 -106.05704 15.66893 -2.25678 39.97541 0.18844 -12.00547 -19.12114 -6.12327 -1.6358 -3.01278 43.13091 1.8407 8.73258 -24.87857 -6.25679 1.65111 3.02512
0.00311 0.00034 -0.00594 45.3688 -29.30856 -9.59621 49.74663 1.66989 -5.92239 -0.39112 0.20519 -0.87124 -19.48219 -8.52911 -10.07293 29.99333 113.88925 11.10281 5.50832 -28.37749 13.27888 -4.1783 42.46247 -105.90071 15.43789 -2.2747 39.98006 0.16972 -12.07015 -19.12241 -6.11683 -1.65073 -3.01949 43.15822 1.78401 8.52562 -24.88206 -6.25547 1.65335 3.02788
0.00267 0.00028 -0.0055 45.46189 -29.31079 -9.58318 49.69046 1.66051 -5.98988 -0.01556 0.11654 -0.87331 -18.28767 -8.42055 -10.06725 30.17698 117.91815 12.2886 6.15128 -26.43792 13.07842 -4.37322 42.36451 -105.80484 15.24168 -2.30592 40.00953 0.15758 -12.09483 -19.12307 -6.11043 -1.66566 -3.02641 43.20584 1.74863 8.41203 -24.88754 -6.25581 1.64874 3.02718
0.00211 0.00026 -0.00473 45.52941 -29.33873 -9.56159 49.55571 1.65366 -6.09078 0.55214 -0.00406 -0.87558 -16.99548 -8.71622 -8.55043 30.31635 114.03213 11.27383 5.47523 -24.15798 13.0194 -5.09221 42.3374 -105.48147 15.01304 -2.29322 40.09481 0.16761 -11.97703 -19.12173 -6.10329 -1.68322 -3.03517 43.29508 1.77469 8.57463 -24.8983 -6.26045 1.62394 3.01628
0.0015 0.00025 -0.00381 45.58766 -29.37995 -9.538 49.39132 1.64804 -6.2009 1.19253 -0.13497 -0.87802 -15.66391 -9.14578 -6.52341 30.43907 107.59711 9.54989 4.37493 -21.74336 12.98072 -5.93432 42.38118 -105.17342 14.80588 -2.28431 40.2065 0.18394 -11.82265 -19.11987 -6.09635 -1.70033 -3.04392 43.4062 1.82297 8.83307 -24.91099 -6.26687 1.59212 3.00184
